<svg width="701" height="658" viewBox="0 0 701 658" fill="none" xmlns="http://www.w3.org/2000/svg">
<path d="M441.391 479.914C448.838 492.275 465.027 496.384 476.323 487.403C503.834 465.533 525.282 436.751 538.343 403.799C554.629 362.713 556.977 317.415 545.024 274.865C533.072 232.315 507.481 194.865 472.183 168.269C436.884 141.672 393.83 127.399 349.634 127.642C305.438 127.886 262.543 142.632 227.54 169.615C192.536 196.599 167.359 234.328 155.876 277.007C144.393 319.686 147.238 364.955 163.976 405.86C177.399 438.666 199.162 467.21 226.912 488.776C238.307 497.631 254.45 493.345 261.76 480.902C269.07 468.459 264.716 452.602 253.734 443.24C235.668 427.84 221.428 408.271 212.343 386.069C199.94 355.757 197.832 322.212 206.341 290.585C214.851 258.959 233.508 231 259.446 211.005C285.385 191.009 317.171 180.082 349.922 179.902C382.672 179.721 414.577 190.298 440.734 210.007C466.891 229.716 485.855 257.467 494.712 288.998C503.569 320.529 501.829 354.095 489.761 384.542C480.921 406.843 466.898 426.567 449.002 442.165C438.124 451.648 433.944 467.552 441.391 479.914Z" fill="#93E9BE"/>
<path d="M439.843 564.637C444.824 577.786 459.586 584.511 472.222 578.345C522.571 553.774 564.482 514.4 592.144 465.223C623.981 408.622 634.918 342.633 623.041 278.787C611.165 214.941 577.231 157.298 527.17 115.931C477.108 74.5646 414.103 52.1043 349.163 52.4752C284.222 52.8462 221.477 76.0247 171.892 117.961C122.306 159.897 89.0332 217.923 77.887 281.901C66.7407 345.878 78.4301 411.738 110.912 467.972C139.134 516.83 181.492 555.722 232.118 579.716C244.824 585.738 259.509 578.844 264.339 565.64C269.169 552.435 262.296 537.942 249.718 531.658C210.26 511.946 177.249 481.019 155.002 442.505C128.491 396.609 118.951 342.856 128.048 290.64C137.145 238.424 164.301 191.065 204.771 156.838C245.241 122.611 296.452 103.694 349.453 103.391C402.455 103.088 453.878 121.42 494.736 155.182C535.595 188.944 563.29 235.99 572.983 288.098C582.676 340.207 573.751 394.065 547.766 440.261C525.96 479.027 493.305 510.329 454.075 530.491C441.569 536.918 434.862 551.489 439.843 564.637Z" fill="#93E9BE"/>
<path d="M401.424 329.149C401.424 357.411 378.513 380.322 350.251 380.322C321.989 380.322 299.079 357.411 299.079 329.149C299.079 300.887 321.989 277.977 350.251 277.977C378.513 277.977 401.424 300.887 401.424 329.149Z" fill="#35D384"/>
<path d="M289.249 406.342H411.253V532.394H289.249V406.342Z" fill="#35D384"/>
<path d="M289.249 532.394H340.711V580.097C340.711 594.308 329.19 605.828 314.98 605.828C300.769 605.828 289.249 594.308 289.249 580.097V532.394Z" fill="#35D384"/>
<path d="M359.792 532.394H411.253L411.254 580.097C411.254 594.308 399.733 605.828 385.523 605.828C371.312 605.828 359.792 594.308 359.792 580.097V532.394Z" fill="#35D384"/>
<path d="M449.153 329.438C463.349 329.438 475.124 341.066 472.222 354.963C467.293 378.57 455.588 400.441 438.277 417.753C414.854 441.175 383.086 454.334 349.962 454.334C316.838 454.334 285.07 441.175 261.648 417.753C244.336 400.441 232.631 378.57 227.702 354.963C224.8 341.066 236.575 329.438 250.771 329.438C264.967 329.438 276.06 341.286 280.925 354.622C284.563 364.592 290.351 373.753 297.999 381.401C311.781 395.183 330.472 402.925 349.962 402.925C369.452 402.925 388.144 395.183 401.925 381.401C409.573 373.753 415.362 364.592 418.999 354.622C423.864 341.286 434.957 329.438 449.153 329.438Z" fill="#35D384"/>
<path d="M446.227 304.627C459.45 301.14 467.554 287.426 461.52 275.155C453.161 258.159 440.977 243.195 425.796 231.508C404.031 214.753 377.331 205.677 349.863 205.699C322.396 205.721 295.71 214.839 273.972 231.628C258.809 243.339 246.649 258.322 238.318 275.332C232.302 287.613 240.429 301.314 253.657 304.78C266.885 308.246 280.122 299.952 287.7 288.569C292.181 281.837 297.755 275.831 304.242 270.821C317.321 260.719 333.377 255.233 349.903 255.22C366.428 255.207 382.493 260.667 395.588 270.748C402.083 275.748 407.666 281.745 412.158 288.47C419.754 299.841 433.004 308.115 446.227 304.627Z" fill="#35D384"/>
</svg>
