<svg width="2601" height="1025" viewBox="0 0 2601 1025" fill="none" xmlns="http://www.w3.org/2000/svg">
<path d="M441.391 579.914C448.838 592.275 465.027 596.384 476.323 587.403C503.834 565.533 525.282 536.751 538.343 503.799C554.629 462.713 556.977 417.415 545.024 374.865C533.072 332.315 507.481 294.865 472.183 268.269C436.884 241.672 393.83 227.399 349.634 227.642C305.438 227.886 262.543 242.632 227.54 269.615C192.536 296.599 167.359 334.328 155.876 377.007C144.393 419.686 147.238 464.955 163.976 505.86C177.399 538.666 199.162 567.21 226.912 588.776C238.307 597.631 254.45 593.345 261.76 580.902C269.07 568.459 264.716 552.602 253.734 543.24C235.668 527.84 221.428 508.271 212.343 486.069C199.94 455.757 197.832 422.212 206.341 390.585C214.851 358.959 233.508 331 259.446 311.005C285.385 291.009 317.171 280.082 349.922 279.902C382.672 279.721 414.577 290.298 440.734 310.007C466.891 329.716 485.855 357.467 494.712 388.998C503.569 420.529 501.829 454.095 489.761 484.542C480.921 506.843 466.898 526.567 449.002 542.165C438.124 551.648 433.944 567.552 441.391 579.914Z" fill="#93E9BE"/>
<path d="M439.843 664.637C444.824 677.786 459.586 684.511 472.222 678.345C522.571 653.774 564.482 614.4 592.144 565.223C623.981 508.622 634.918 442.633 623.041 378.787C611.165 314.941 577.231 257.298 527.17 215.931C477.108 174.565 414.103 152.104 349.163 152.475C284.222 152.846 221.477 176.025 171.892 217.961C122.306 259.897 89.0332 317.923 77.887 381.901C66.7407 445.878 78.4301 511.738 110.912 567.972C139.134 616.83 181.492 655.722 232.118 679.716C244.824 685.738 259.509 678.844 264.339 665.64C269.169 652.435 262.296 637.942 249.718 631.658C210.26 611.946 177.249 581.019 155.002 542.505C128.491 496.609 118.951 442.856 128.048 390.64C137.145 338.424 164.301 291.065 204.771 256.838C245.241 222.611 296.452 203.694 349.453 203.391C402.455 203.088 453.878 221.42 494.736 255.182C535.595 288.944 563.29 335.99 572.983 388.098C582.676 440.207 573.751 494.065 547.766 540.261C525.96 579.027 493.305 610.329 454.075 630.491C441.569 636.918 434.862 651.489 439.843 664.637Z" fill="#93E9BE"/>
<path d="M401.424 429.149C401.424 457.411 378.513 480.322 350.251 480.322C321.989 480.322 299.079 457.411 299.079 429.149C299.079 400.887 321.989 377.977 350.251 377.977C378.513 377.977 401.424 400.887 401.424 429.149Z" fill="#35D384"/>
<path d="M289.249 506.342H411.253V632.394H289.249V506.342Z" fill="#35D384"/>
<path d="M289.249 632.394H340.711V680.097C340.711 694.308 329.19 705.828 314.98 705.828C300.769 705.828 289.249 694.308 289.249 680.097V632.394Z" fill="#35D384"/>
<path d="M359.792 632.394H411.253L411.254 680.097C411.254 694.308 399.733 705.828 385.523 705.828C371.312 705.828 359.792 694.308 359.792 680.097V632.394Z" fill="#35D384"/>
<path d="M449.153 429.438C463.349 429.438 475.124 441.066 472.222 454.963C467.293 478.57 455.588 500.441 438.277 517.753C414.854 541.175 383.086 554.334 349.962 554.334C316.838 554.334 285.07 541.175 261.648 517.753C244.336 500.441 232.631 478.57 227.702 454.963C224.8 441.066 236.575 429.438 250.771 429.438C264.967 429.438 276.06 441.286 280.925 454.622C284.563 464.592 290.351 473.753 297.999 481.401C311.781 495.183 330.472 502.925 349.962 502.925C369.452 502.925 388.144 495.183 401.925 481.401C409.573 473.753 415.362 464.592 418.999 454.622C423.864 441.286 434.957 429.438 449.153 429.438Z" fill="#35D384"/>
<path d="M446.227 404.627C459.45 401.14 467.554 387.426 461.52 375.155C453.161 358.159 440.977 343.195 425.796 331.508C404.031 314.753 377.331 305.677 349.863 305.699C322.396 305.721 295.71 314.839 273.972 331.628C258.809 343.339 246.649 358.322 238.318 375.332C232.302 387.613 240.429 401.314 253.657 404.78C266.885 408.246 280.122 399.952 287.7 388.569C292.181 381.837 297.755 375.831 304.242 370.821C317.321 360.719 333.377 355.233 349.903 355.22C366.428 355.207 382.493 360.667 395.588 370.748C402.083 375.748 407.666 381.745 412.158 388.47C419.754 399.841 433.004 408.115 446.227 404.627Z" fill="#35D384"/>
<path d="M181.243 837.36L146.077 782.274V837.36H124.805V749.075H149.766L182.35 800.103V749.075H203.622V837.36H181.243Z" fill="#35D384"/>
<path d="M261.198 839.205C254.805 839.205 248.861 838.098 243.369 835.885C237.877 833.59 233.041 830.393 228.86 826.294C224.761 822.113 221.523 817.236 219.146 811.662C216.851 806.006 215.703 799.817 215.703 793.095C215.703 786.373 216.851 780.225 219.146 774.651C221.523 769.076 224.761 764.24 228.86 760.141C233.041 756.043 237.877 752.887 243.369 750.673C248.861 748.378 254.805 747.23 261.198 747.23C267.592 747.23 273.535 748.378 279.028 750.673C284.602 752.887 289.438 756.043 293.537 760.141C297.718 764.24 300.956 769.076 303.251 774.651C305.628 780.225 306.817 786.373 306.817 793.095C306.817 799.817 305.628 806.006 303.251 811.662C300.956 817.236 297.718 822.113 293.537 826.294C289.438 830.393 284.602 833.59 279.028 835.885C273.535 838.098 267.592 839.205 261.198 839.205ZM261.198 818.425C264.641 818.425 267.715 817.769 270.42 816.457C273.126 815.146 275.38 813.342 277.183 811.047C279.069 808.67 280.462 805.965 281.364 802.932C282.348 799.817 282.839 796.538 282.839 793.095C282.839 789.652 282.348 786.414 281.364 783.381C280.462 780.348 279.069 777.684 277.183 775.388C275.38 773.093 273.126 771.29 270.42 769.978C267.715 768.667 264.641 768.011 261.198 768.011C257.756 768.011 254.682 768.667 251.976 769.978C249.271 771.29 246.976 773.093 245.091 775.388C243.287 777.684 241.894 780.348 240.91 783.381C240.008 786.414 239.557 789.652 239.557 793.095C239.557 796.538 240.008 799.817 240.91 802.932C241.894 805.965 243.287 808.67 245.091 811.047C246.976 813.342 249.271 815.146 251.976 816.457C254.682 817.769 257.756 818.425 261.198 818.425Z" fill="#35D384"/>
<path d="M342.091 837.36H318.851V749.075H342.091V786.209L369.634 749.075H396.071L364.962 790.513L396.931 837.36H368.65L342.091 797.521V837.36Z" fill="#35D384"/>
<path d="M429.508 837.36H406.269V749.075H429.508V786.209L457.051 749.075H483.488L452.379 790.513L484.348 837.36H456.068L429.508 797.521V837.36Z" fill="#35D384"/>
<path d="M511.638 802.686H549.141L555.166 821.007H505.49L511.638 802.686ZM551.231 837.36L530.574 774.651L509.302 837.36H485.816L518.524 749.075H543.976L576.315 837.36H551.231Z" fill="#35D384"/>
<path d="M721.777 105.951C704.574 105.951 690.627 119.897 690.627 137.101C690.627 154.304 704.574 168.251 721.777 168.251C738.981 168.251 752.927 154.304 752.927 137.101C752.927 119.897 738.981 105.951 721.777 105.951ZM715.937 868.1C715.937 871.325 718.552 873.94 721.777 873.94C725.003 873.94 727.618 871.325 727.618 868.1L715.937 868.1ZM715.937 137.101L715.937 868.1L727.618 868.1L727.618 137.101L715.937 137.101Z" fill="#1E1E1E"/>
<path d="M808.28 338.841H792.971C790.389 338.841 789.098 337.55 789.098 334.968V224.119C789.098 221.537 790.389 220.246 792.971 220.246H806.804C808.649 220.246 809.94 220.614 810.678 221.352C811.415 222.09 811.846 222.582 811.969 222.828L849.226 292.731H849.963V224.119C849.963 221.537 851.254 220.246 853.837 220.246H869.145C871.727 220.246 873.018 221.537 873.018 224.119V334.968C873.018 337.55 871.727 338.841 869.145 338.841H855.681C853.714 338.841 852.238 338.287 851.254 337.181C850.394 335.951 849.902 335.275 849.779 335.152L812.891 266.54H812.153V334.968C812.153 337.55 810.862 338.841 808.28 338.841ZM911.006 288.489H950.845C952.075 288.489 952.69 287.874 952.69 286.644V272.442C952.69 267.278 951.398 263.343 948.816 260.638C946.234 257.933 942.361 256.58 937.197 256.58H924.655C919.49 256.58 915.617 257.933 913.035 260.638C910.453 263.343 909.162 267.278 909.162 272.442V286.644C909.162 287.874 909.776 288.489 911.006 288.489ZM962.28 338.841H923.179C914.695 338.841 907.993 336.443 903.075 331.648C898.28 326.852 895.882 320.151 895.882 311.544V272.073C895.882 263.466 898.28 256.765 903.075 251.969C907.993 247.174 914.695 244.776 923.179 244.776H938.672C947.156 244.776 953.796 247.174 958.592 251.969C963.387 256.765 965.785 263.466 965.785 272.073V295.497C965.785 297.342 964.924 298.264 963.203 298.264H911.006C909.776 298.264 909.162 298.817 909.162 299.924V311.175C909.162 316.339 910.453 320.335 913.035 323.163C915.617 325.869 919.49 327.221 924.655 327.221H962.28C964.002 327.221 964.863 328.082 964.863 329.803V336.443C964.863 338.042 964.002 338.841 962.28 338.841ZM999.388 338.841H991.088C989.366 338.841 988.506 337.98 988.506 336.259V247.358C988.506 245.637 989.366 244.776 991.088 244.776H999.388C1001.11 244.776 1001.97 245.637 1001.97 247.358V254.552H1002.71C1004.06 251.969 1006.33 249.695 1009.53 247.727C1012.73 245.76 1016.97 244.776 1022.26 244.776H1029.08C1034.49 244.776 1039.04 245.883 1042.73 248.096C1046.54 250.186 1049.49 253.26 1051.58 257.318C1052.94 254.367 1054.84 251.969 1057.3 250.125C1059.76 248.281 1062.47 246.928 1065.42 246.067C1068.49 245.207 1071.44 244.776 1074.27 244.776H1080.73C1089.21 244.776 1095.73 247.174 1100.28 251.969C1104.95 256.765 1107.29 263.466 1107.29 272.073V336.259C1107.29 337.98 1106.42 338.841 1104.7 338.841H1096.4C1094.68 338.841 1093.82 337.98 1093.82 336.259V272.627C1093.82 267.339 1092.53 263.343 1089.95 260.638C1087.37 257.933 1083.49 256.58 1078.33 256.58H1072.24C1066.59 256.58 1062.28 258.179 1059.33 261.376C1056.38 264.573 1054.9 268.815 1054.9 274.102V336.259C1054.9 337.98 1054.04 338.841 1052.32 338.841H1044.02C1042.3 338.841 1041.44 337.98 1041.44 336.259V272.627C1041.44 267.339 1040.15 263.343 1037.57 260.638C1034.98 257.933 1031.11 256.58 1025.95 256.58H1019.12C1013.47 256.58 1009.16 258.117 1006.21 261.191C1003.38 264.142 1001.97 268.262 1001.97 273.549V336.259C1001.97 337.98 1001.11 338.841 999.388 338.841ZM1125.24 336.259V332.754C1125.24 331.156 1125.42 329.988 1125.79 329.25C1126.16 328.512 1126.59 327.774 1127.08 327.037L1172.64 257.318V256.58H1129.3C1127.58 256.58 1126.71 255.658 1126.71 253.814V247.358C1126.71 245.637 1127.58 244.776 1129.3 244.776H1185.92C1187.76 244.776 1188.69 245.637 1188.69 247.358V253.445C1188.69 254.797 1188.56 255.843 1188.32 256.58C1188.07 257.318 1187.64 257.933 1187.03 258.425L1142.95 326.299V327.037H1187.58C1189.3 327.037 1190.16 327.959 1190.16 329.803V336.259C1190.16 337.98 1189.3 338.841 1187.58 338.841H1128.01C1126.16 338.841 1125.24 337.98 1125.24 336.259ZM1222.25 288.489H1262.09C1263.32 288.489 1263.93 287.874 1263.93 286.644V272.442C1263.93 267.278 1262.64 263.343 1260.06 260.638C1257.48 257.933 1253.6 256.58 1248.44 256.58H1235.9C1230.73 256.58 1226.86 257.933 1224.28 260.638C1221.7 263.343 1220.4 267.278 1220.4 272.442V286.644C1220.4 287.874 1221.02 288.489 1222.25 288.489ZM1273.52 338.841H1234.42C1225.94 338.841 1219.24 336.443 1214.32 331.648C1209.52 326.852 1207.13 320.151 1207.13 311.544V272.073C1207.13 263.466 1209.52 256.765 1214.32 251.969C1219.24 247.174 1225.94 244.776 1234.42 244.776H1249.92C1258.4 244.776 1265.04 247.174 1269.83 251.969C1274.63 256.765 1277.03 263.466 1277.03 272.073V295.497C1277.03 297.342 1276.17 298.264 1274.45 298.264H1222.25C1221.02 298.264 1220.4 298.817 1220.4 299.924V311.175C1220.4 316.339 1221.7 320.335 1224.28 323.163C1226.86 325.869 1230.73 327.221 1235.9 327.221H1273.52C1275.25 327.221 1276.11 328.082 1276.11 329.803V336.443C1276.11 338.042 1275.25 338.841 1273.52 338.841ZM1303.25 256.58H1293.11C1292.13 256.58 1291.45 256.396 1291.08 256.027C1290.71 255.658 1290.53 255.043 1290.53 254.183V247.358C1290.53 245.637 1291.39 244.776 1293.11 244.776H1303.25C1304.48 244.776 1305.1 244.223 1305.1 243.116V227.254C1305.1 225.533 1305.96 224.672 1307.68 224.672H1315.98C1317.58 224.672 1318.38 225.533 1318.38 227.254V243.116C1318.38 244.223 1319.05 244.776 1320.41 244.776H1339.96C1341.8 244.776 1342.72 245.637 1342.72 247.358V254.183C1342.72 255.781 1341.8 256.58 1339.96 256.58H1320.41C1319.05 256.58 1318.38 257.134 1318.38 258.24V311.359C1318.38 316.524 1319.79 320.458 1322.62 323.163C1325.45 325.746 1329.44 327.037 1334.61 327.037H1341.8C1343.65 327.037 1344.57 327.897 1344.57 329.619V336.443C1344.57 338.042 1343.65 338.841 1341.8 338.841H1332.95C1324.59 338.841 1317.82 336.505 1312.66 331.832C1307.62 327.16 1305.1 320.52 1305.1 311.913V258.24C1305.1 257.134 1304.48 256.58 1303.25 256.58ZM1386.74 288.489L1412.93 247.174C1413.79 245.575 1415.26 244.776 1417.35 244.776H1426.58C1427.56 244.776 1428.17 245.084 1428.42 245.698C1428.79 246.19 1428.67 246.866 1428.05 247.727L1400.94 289.78V290.517L1430.82 335.89C1431.31 336.75 1431.37 337.488 1431 338.103C1430.63 338.595 1429.96 338.841 1428.97 338.841H1420.31C1419.08 338.841 1418.09 338.718 1417.35 338.472C1416.74 338.103 1416 337.365 1415.14 336.259L1386.74 292.362C1386 291.132 1386 289.841 1386.74 288.489ZM1374.93 338.841H1366.63C1364.91 338.841 1364.05 337.98 1364.05 336.259V211.761C1364.05 210.04 1364.91 209.179 1366.63 209.179H1374.93C1376.65 209.179 1377.52 210.04 1377.52 211.761C1377.52 215.573 1377.52 220.246 1377.52 225.779C1377.52 231.189 1377.52 237.153 1377.52 243.67C1377.52 250.063 1377.52 256.703 1377.52 263.589C1377.52 270.475 1377.52 277.422 1377.52 284.431C1377.52 291.317 1377.52 298.018 1377.52 304.535C1377.52 310.929 1377.52 316.892 1377.52 322.426C1377.52 327.836 1377.52 332.447 1377.52 336.259C1377.52 337.98 1376.65 338.841 1374.93 338.841ZM1472.75 327.037H1485.66C1490.83 327.037 1494.7 325.684 1497.28 322.979C1499.87 320.274 1501.16 316.339 1501.16 311.175V272.442C1501.16 267.278 1499.87 263.343 1497.28 260.638C1494.7 257.933 1490.83 256.58 1485.66 256.58H1472.75C1467.59 256.58 1463.72 257.933 1461.13 260.638C1458.55 263.343 1457.26 267.278 1457.26 272.442V311.175C1457.26 316.339 1458.55 320.274 1461.13 322.979C1463.72 325.684 1467.59 327.037 1472.75 327.037ZM1487.14 338.841H1471.28C1462.79 338.841 1456.09 336.443 1451.17 331.648C1446.38 326.852 1443.98 320.151 1443.98 311.544V272.073C1443.98 263.466 1446.38 256.765 1451.17 251.969C1456.09 247.174 1462.79 244.776 1471.28 244.776H1487.14C1495.62 244.776 1502.26 247.174 1507.06 251.969C1511.98 256.765 1514.44 263.466 1514.44 272.073V311.544C1514.44 320.151 1511.98 326.852 1507.06 331.648C1502.26 336.443 1495.62 338.841 1487.14 338.841ZM1488.61 230.39V211.761C1488.61 210.04 1489.41 209.179 1491.01 209.179H1498.94C1500.54 209.179 1501.34 209.978 1501.34 211.577V230.39C1501.34 232.111 1500.54 232.972 1498.94 232.972H1491.01C1489.41 232.972 1488.61 232.111 1488.61 230.39ZM1457.08 230.39V211.761C1457.08 210.04 1457.87 209.179 1459.47 209.179H1467.4C1469 209.179 1469.8 209.978 1469.8 211.577V230.39C1469.8 232.111 1469 232.972 1467.4 232.972H1459.47C1457.87 232.972 1457.08 232.111 1457.08 230.39ZM1531.4 336.259V332.754C1531.4 331.156 1531.59 329.988 1531.96 329.25C1532.33 328.512 1532.76 327.774 1533.25 327.037L1578.81 257.318V256.58H1535.46C1533.74 256.58 1532.88 255.658 1532.88 253.814V247.358C1532.88 245.637 1533.74 244.776 1535.46 244.776H1592.09C1593.93 244.776 1594.85 245.637 1594.85 247.358V253.445C1594.85 254.797 1594.73 255.843 1594.48 256.58C1594.24 257.318 1593.81 257.933 1593.19 258.425L1549.11 326.299V327.037H1593.75C1595.47 327.037 1596.33 327.959 1596.33 329.803V336.259C1596.33 337.98 1595.47 338.841 1593.75 338.841H1534.17C1532.33 338.841 1531.4 337.98 1531.4 336.259ZM1616.06 336.259V247.358C1616.06 245.637 1616.86 244.776 1618.45 244.776H1626.94C1628.66 244.776 1629.52 245.637 1629.52 247.358V336.259C1629.52 337.242 1629.28 337.919 1628.78 338.287C1628.41 338.656 1627.8 338.841 1626.94 338.841H1618.64C1616.92 338.841 1616.06 337.98 1616.06 336.259ZM1616.06 229.283V211.946C1616.06 210.224 1616.86 209.364 1618.45 209.364H1626.94C1628.66 209.364 1629.52 210.224 1629.52 211.946V229.283C1629.52 231.005 1628.66 231.865 1626.94 231.865H1618.45C1616.86 231.865 1616.06 231.005 1616.06 229.283ZM1751.18 338.841H1730.52C1720.81 338.841 1713.31 336.259 1708.02 331.094C1702.73 325.93 1700.09 318.491 1700.09 308.777V250.309C1700.09 240.596 1702.73 233.156 1708.02 227.992C1713.31 222.828 1720.81 220.246 1730.52 220.246H1751.18C1760.89 220.246 1768.39 222.828 1773.68 227.992C1778.97 233.156 1781.61 240.596 1781.61 250.309V308.777C1781.61 318.491 1778.97 325.93 1773.68 331.094C1768.39 336.259 1760.89 338.841 1751.18 338.841ZM1734.21 318.552H1747.31C1751.24 318.552 1754.01 317.692 1755.61 315.97C1757.33 314.249 1758.19 311.482 1758.19 307.67V251.416C1758.19 247.481 1757.33 244.715 1755.61 243.116C1754.01 241.395 1751.24 240.534 1747.31 240.534H1734.21C1730.28 240.534 1727.51 241.395 1725.91 243.116C1724.31 244.715 1723.51 247.481 1723.51 251.416V307.67C1723.51 311.482 1724.31 314.249 1725.91 315.97C1727.51 317.692 1730.28 318.552 1734.21 318.552ZM1827.12 288.489L1853.32 247.174C1854.18 245.575 1855.65 244.776 1857.74 244.776H1866.96C1867.95 244.776 1868.56 245.084 1868.81 245.698C1869.18 246.19 1869.05 246.866 1868.44 247.727L1841.33 289.78V290.517L1871.21 335.89C1871.7 336.75 1871.76 337.488 1871.39 338.103C1871.02 338.595 1870.35 338.841 1869.36 338.841H1860.69C1859.46 338.841 1858.48 338.718 1857.74 338.472C1857.13 338.103 1856.39 337.365 1855.53 336.259L1827.12 292.362C1826.39 291.132 1826.39 289.841 1827.12 288.489ZM1815.32 338.841H1807.02C1805.3 338.841 1804.44 337.98 1804.44 336.259V211.761C1804.44 210.04 1805.3 209.179 1807.02 209.179H1815.32C1817.04 209.179 1817.9 210.04 1817.9 211.761C1817.9 215.573 1817.9 220.246 1817.9 225.779C1817.9 231.189 1817.9 237.153 1817.9 243.67C1817.9 250.063 1817.9 256.703 1817.9 263.589C1817.9 270.475 1817.9 277.422 1817.9 284.431C1817.9 291.317 1817.9 298.018 1817.9 304.535C1817.9 310.929 1817.9 316.892 1817.9 322.426C1817.9 327.836 1817.9 332.447 1817.9 336.259C1817.9 337.98 1817.04 338.841 1815.32 338.841ZM1889.72 256.58H1879.57C1878.59 256.58 1877.91 256.396 1877.54 256.027C1877.17 255.658 1876.99 255.043 1876.99 254.183V247.358C1876.99 245.637 1877.85 244.776 1879.57 244.776H1889.72C1890.95 244.776 1891.56 244.223 1891.56 243.116V227.254C1891.56 225.533 1892.42 224.672 1894.14 224.672H1902.44C1904.04 224.672 1904.84 225.533 1904.84 227.254V243.116C1904.84 244.223 1905.52 244.776 1906.87 244.776H1926.42C1928.26 244.776 1929.19 245.637 1929.19 247.358V254.183C1929.19 255.781 1928.26 256.58 1926.42 256.58H1906.87C1905.52 256.58 1904.84 257.134 1904.84 258.24V311.359C1904.84 316.524 1906.25 320.458 1909.08 323.163C1911.91 325.746 1915.91 327.037 1921.07 327.037H1928.26C1930.11 327.037 1931.03 327.897 1931.03 329.619V336.443C1931.03 338.042 1930.11 338.841 1928.26 338.841H1919.41C1911.05 338.841 1904.29 336.505 1899.12 331.832C1894.08 327.16 1891.56 320.52 1891.56 311.913V258.24C1891.56 257.134 1890.95 256.58 1889.72 256.58ZM2005.11 310.068V258.24C2005.11 257.134 2004.49 256.58 2003.26 256.58H1977.44C1972.28 256.58 1968.4 257.933 1965.82 260.638C1963.36 263.343 1962.13 267.339 1962.13 272.627V310.99C1962.13 316.155 1963.36 320.151 1965.82 322.979C1968.4 325.684 1972.28 327.037 1977.44 327.037H1987.96C1993.61 327.037 1997.85 325.561 2000.68 322.61C2003.63 319.536 2005.11 315.355 2005.11 310.068ZM1985.56 338.841H1975.97C1967.48 338.841 1960.78 336.443 1955.86 331.648C1951.07 326.852 1948.67 320.151 1948.67 311.544V272.073C1948.67 263.466 1951.07 256.765 1955.86 251.969C1960.78 247.174 1967.48 244.776 1975.97 244.776H2015.99C2017.71 244.776 2018.57 245.637 2018.57 247.358V336.259C2018.57 337.98 2017.71 338.841 2015.99 338.841H2007.69C2005.97 338.841 2005.11 337.98 2005.11 336.259V329.065H2004.37C2003.02 332.017 2000.68 334.414 1997.36 336.259C1994.17 337.98 1990.23 338.841 1985.56 338.841ZM2047.5 256.58H2037.36C2036.37 256.58 2035.7 256.396 2035.33 256.027C2034.96 255.658 2034.77 255.043 2034.77 254.183V247.358C2034.77 245.637 2035.63 244.776 2037.36 244.776H2047.5C2048.73 244.776 2049.34 244.223 2049.34 243.116V227.254C2049.34 225.533 2050.2 224.672 2051.93 224.672H2060.23C2061.82 224.672 2062.62 225.533 2062.62 227.254V243.116C2062.62 244.223 2063.3 244.776 2064.65 244.776H2084.2C2086.05 244.776 2086.97 245.637 2086.97 247.358V254.183C2086.97 255.781 2086.05 256.58 2084.2 256.58H2064.65C2063.3 256.58 2062.62 257.134 2062.62 258.24V311.359C2062.62 316.524 2064.04 320.458 2066.87 323.163C2069.69 325.746 2073.69 327.037 2078.85 327.037H2086.05C2087.89 327.037 2088.81 327.897 2088.81 329.619V336.443C2088.81 338.042 2087.89 338.841 2086.05 338.841H2077.19C2068.83 338.841 2062.07 336.505 2056.91 331.832C2051.86 327.16 2049.34 320.52 2049.34 311.913V258.24C2049.34 257.134 2048.73 256.58 2047.5 256.58ZM2162.89 310.068V258.24C2162.89 257.134 2162.28 256.58 2161.05 256.58H2135.23C2130.06 256.58 2126.19 257.933 2123.61 260.638C2121.15 263.343 2119.92 267.339 2119.92 272.627V310.99C2119.92 316.155 2121.15 320.151 2123.61 322.979C2126.19 325.684 2130.06 327.037 2135.23 327.037H2145.74C2151.39 327.037 2155.64 325.561 2158.47 322.61C2161.42 319.536 2162.89 315.355 2162.89 310.068ZM2143.34 338.841H2133.75C2125.27 338.841 2118.56 336.443 2113.65 331.648C2108.85 326.852 2106.45 320.151 2106.45 311.544V272.073C2106.45 263.466 2108.85 256.765 2113.65 251.969C2118.56 247.174 2125.27 244.776 2133.75 244.776H2173.77C2175.5 244.776 2176.36 245.637 2176.36 247.358V336.259C2176.36 337.98 2175.5 338.841 2173.77 338.841H2165.47C2163.75 338.841 2162.89 337.98 2162.89 336.259V329.065H2162.15C2160.8 332.017 2158.47 334.414 2155.15 336.259C2151.95 337.98 2148.01 338.841 2143.34 338.841ZM2153.85 209.179H2164.92C2165.78 209.179 2166.33 209.425 2166.58 209.917C2166.83 210.409 2166.7 211.024 2166.21 211.761L2150.17 231.128C2149.06 232.357 2147.77 232.972 2146.29 232.972H2140.39C2138.67 232.972 2138.3 232.111 2139.28 230.39L2149.98 211.577C2150.84 209.978 2152.13 209.179 2153.85 209.179ZM2233.69 338.841H2200.86C2199.13 338.841 2198.27 337.98 2198.27 336.259V329.803C2198.27 328.943 2198.46 328.328 2198.83 327.959C2199.2 327.59 2199.87 327.406 2200.86 327.406H2231.84C2236.51 327.406 2240.08 326.545 2242.54 324.823C2245 323.102 2246.23 320.397 2246.23 316.708V313.204C2246.23 310.13 2245.49 307.486 2244.02 305.273C2242.66 302.936 2240.26 301.092 2236.82 299.739L2215.06 290.517C2208.91 287.935 2204.42 284.923 2201.59 281.48C2198.89 277.914 2197.54 273.241 2197.54 267.462C2197.54 260.085 2199.5 254.49 2203.44 250.678C2207.37 246.744 2213.71 244.776 2222.44 244.776H2252.68C2254.41 244.776 2255.27 245.637 2255.27 247.358V253.814C2255.27 254.674 2255.08 255.289 2254.71 255.658C2254.34 256.027 2253.67 256.211 2252.68 256.211H2224.83C2220.04 256.211 2216.59 257.195 2214.5 259.163C2212.41 261.13 2211.37 263.22 2211.37 265.433V268.569C2211.37 271.766 2212.35 274.225 2214.32 275.947C2216.29 277.668 2218.81 279.144 2221.88 280.373L2243.65 290.149C2248.2 291.87 2251.64 293.96 2253.97 296.42C2256.31 298.879 2257.91 301.707 2258.77 304.904C2259.63 308.101 2260.06 311.667 2260.06 315.601C2260.06 323.594 2257.85 329.496 2253.42 333.308C2249.12 336.996 2242.54 338.841 2233.69 338.841ZM2282.49 336.259V247.358C2282.49 245.637 2283.29 244.776 2284.89 244.776H2293.37C2295.1 244.776 2295.96 245.637 2295.96 247.358V336.259C2295.96 337.242 2295.71 337.919 2295.22 338.287C2294.85 338.656 2294.24 338.841 2293.37 338.841H2285.07C2283.35 338.841 2282.49 337.98 2282.49 336.259ZM2282.49 229.283V211.946C2282.49 210.224 2283.29 209.364 2284.89 209.364H2293.37C2295.1 209.364 2295.96 210.224 2295.96 211.946V229.283C2295.96 231.005 2295.1 231.865 2293.37 231.865H2284.89C2283.29 231.865 2282.49 231.005 2282.49 229.283ZM2382.39 288.489H2422.23C2423.46 288.489 2424.07 287.874 2424.07 286.644V272.442C2424.07 267.278 2422.78 263.343 2420.2 260.638C2417.62 257.933 2413.74 256.58 2408.58 256.58H2396.04C2390.87 256.58 2387 257.933 2384.42 260.638C2381.83 263.343 2380.54 267.278 2380.54 272.442V286.644C2380.54 287.874 2381.16 288.489 2382.39 288.489ZM2433.66 338.841H2394.56C2386.08 338.841 2379.37 336.443 2374.46 331.648C2369.66 326.852 2367.26 320.151 2367.26 311.544V272.073C2367.26 263.466 2369.66 256.765 2374.46 251.969C2379.37 247.174 2386.08 244.776 2394.56 244.776H2410.05C2418.54 244.776 2425.18 247.174 2429.97 251.969C2434.77 256.765 2437.17 263.466 2437.17 272.073V295.497C2437.17 297.342 2436.31 298.264 2434.58 298.264H2382.39C2381.16 298.264 2380.54 298.817 2380.54 299.924V311.175C2380.54 316.339 2381.83 320.335 2384.42 323.163C2387 325.869 2390.87 327.221 2396.04 327.221H2433.66C2435.38 327.221 2436.24 328.082 2436.24 329.803V336.443C2436.24 338.042 2435.38 338.841 2433.66 338.841ZM2410.61 209.179H2421.67C2422.53 209.179 2423.09 209.425 2423.33 209.917C2423.7 210.409 2423.58 211.024 2422.96 211.761L2406.92 231.128C2405.93 232.357 2404.7 232.972 2403.23 232.972H2397.14C2395.54 232.972 2395.18 232.111 2396.04 230.39L2406.73 211.577C2407.59 209.978 2408.89 209.179 2410.61 209.179ZM2491.8 338.841H2458.96C2457.24 338.841 2456.38 337.98 2456.38 336.259V329.803C2456.38 328.943 2456.57 328.328 2456.94 327.959C2457.3 327.59 2457.98 327.406 2458.96 327.406H2489.95C2494.62 327.406 2498.19 326.545 2500.65 324.823C2503.11 323.102 2504.34 320.397 2504.34 316.708V313.204C2504.34 310.13 2503.6 307.486 2502.12 305.273C2500.77 302.936 2498.37 301.092 2494.93 299.739L2473.17 290.517C2467.02 287.935 2462.53 284.923 2459.7 281.48C2457 277.914 2455.64 273.241 2455.64 267.462C2455.64 260.085 2457.61 254.49 2461.55 250.678C2465.48 246.744 2471.81 244.776 2480.54 244.776H2510.79C2512.51 244.776 2513.37 245.637 2513.37 247.358V253.814C2513.37 254.674 2513.19 255.289 2512.82 255.658C2512.45 256.027 2511.78 256.211 2510.79 256.211H2482.94C2478.15 256.211 2474.7 257.195 2472.61 259.163C2470.52 261.13 2469.48 263.22 2469.48 265.433V268.569C2469.48 271.766 2470.46 274.225 2472.43 275.947C2474.4 277.668 2476.92 279.144 2479.99 280.373L2501.75 290.149C2506.3 291.87 2509.75 293.96 2512.08 296.42C2514.42 298.879 2516.02 301.707 2516.88 304.904C2517.74 308.101 2518.17 311.667 2518.17 315.601C2518.17 323.594 2515.96 329.496 2511.53 333.308C2507.23 336.996 2500.65 338.841 2491.8 338.841ZM808.649 561.841H792.971C790.389 561.841 789.098 560.55 789.098 557.968V447.119C789.098 444.537 790.389 443.246 792.971 443.246H808.649C811.231 443.246 812.522 444.537 812.522 447.119V499.684H812.891C813.629 497.348 814.551 495.196 815.657 493.229C816.887 491.139 817.871 489.479 818.608 488.249L846.643 447.119C847.627 445.643 848.549 444.66 849.41 444.168C850.394 443.553 851.869 443.246 853.837 443.246H871.912C873.264 443.246 874.064 443.614 874.31 444.352C874.678 445.09 874.371 446.135 873.387 447.488L838.344 495.996L877.445 557.23C878.429 558.705 878.613 559.873 877.998 560.734C877.384 561.472 876.215 561.841 874.494 561.841H861.03C859.062 561.841 857.341 561.595 855.865 561.103C854.513 560.611 853.345 559.566 852.361 557.968L824.142 512.78L812.522 526.428V557.968C812.522 560.55 811.231 561.841 808.649 561.841ZM928.649 561.841H918.32C909.836 561.841 903.258 559.443 898.585 554.648C894.036 549.852 891.761 543.151 891.761 534.544V470.358C891.761 468.637 892.621 467.776 894.343 467.776H902.643C904.364 467.776 905.225 468.637 905.225 470.358V533.99C905.225 539.155 906.516 543.151 909.098 545.979C911.68 548.684 915.492 550.037 920.533 550.037H931.047C936.703 550.037 940.945 548.561 943.773 545.61C946.724 542.536 948.2 538.355 948.2 533.068V470.358C948.2 468.637 949.06 467.776 950.782 467.776H959.082C960.803 467.776 961.664 468.637 961.664 470.358V559.259C961.664 560.98 960.803 561.841 959.082 561.841H950.782C949.06 561.841 948.2 560.98 948.2 559.259V552.065H947.462C946.109 555.017 943.773 557.414 940.453 559.259C937.256 560.98 933.321 561.841 928.649 561.841ZM990.569 479.58H980.425C979.441 479.58 978.765 479.396 978.396 479.027C978.027 478.658 977.843 478.043 977.843 477.183V470.358C977.843 468.637 978.703 467.776 980.425 467.776H990.569C991.799 467.776 992.413 467.223 992.413 466.116V450.254C992.413 448.533 993.274 447.672 994.996 447.672H1003.3C1004.89 447.672 1005.69 448.533 1005.69 450.254V466.116C1005.69 467.223 1006.37 467.776 1007.72 467.776H1027.27C1029.12 467.776 1030.04 468.637 1030.04 470.358V477.183C1030.04 478.781 1029.12 479.58 1027.27 479.58H1007.72C1006.37 479.58 1005.69 480.134 1005.69 481.24V534.359C1005.69 539.524 1007.11 543.458 1009.94 546.163C1012.76 548.746 1016.76 550.037 1021.92 550.037H1029.12C1030.96 550.037 1031.88 550.897 1031.88 552.619V559.443C1031.88 561.042 1030.96 561.841 1029.12 561.841H1020.26C1011.9 561.841 1005.14 559.505 999.975 554.832C994.934 550.16 992.413 543.52 992.413 534.913V481.24C992.413 480.134 991.799 479.58 990.569 479.58ZM1105.96 533.068V481.24C1105.96 480.134 1105.35 479.58 1104.12 479.58H1078.29C1073.13 479.58 1069.26 480.933 1066.68 483.638C1064.22 486.343 1062.99 490.339 1062.99 495.627V533.99C1062.99 539.155 1064.22 543.151 1066.68 545.979C1069.26 548.684 1073.13 550.037 1078.29 550.037H1088.81C1094.46 550.037 1098.71 548.561 1101.53 545.61C1104.49 542.536 1105.96 538.355 1105.96 533.068ZM1086.41 561.841H1076.82C1068.34 561.841 1061.63 559.443 1056.72 554.648C1051.92 549.852 1049.52 543.151 1049.52 534.544V495.073C1049.52 486.466 1051.92 479.765 1056.72 474.969C1061.63 470.174 1068.34 467.776 1076.82 467.776H1116.84C1118.56 467.776 1119.43 468.637 1119.43 470.358V559.259C1119.43 560.98 1118.56 561.841 1116.84 561.841H1108.54C1106.82 561.841 1105.96 560.98 1105.96 559.259V552.065H1105.22C1103.87 555.017 1101.53 557.414 1098.21 559.259C1095.02 560.98 1091.08 561.841 1086.41 561.841ZM1148.35 479.58H1138.21C1137.22 479.58 1136.55 479.396 1136.18 479.027C1135.81 478.658 1135.63 478.043 1135.63 477.183V470.358C1135.63 468.637 1136.49 467.776 1138.21 467.776H1148.35C1149.58 467.776 1150.2 467.223 1150.2 466.116V450.254C1150.2 448.533 1151.06 447.672 1152.78 447.672H1161.08C1162.68 447.672 1163.48 448.533 1163.48 450.254V466.116C1163.48 467.223 1164.15 467.776 1165.51 467.776H1185.06C1186.9 467.776 1187.82 468.637 1187.82 470.358V477.183C1187.82 478.781 1186.9 479.58 1185.06 479.58H1165.51C1164.15 479.58 1163.48 480.134 1163.48 481.24V534.359C1163.48 539.524 1164.89 543.458 1167.72 546.163C1170.55 548.746 1174.54 550.037 1179.71 550.037H1186.9C1188.74 550.037 1189.67 550.897 1189.67 552.619V559.443C1189.67 561.042 1188.74 561.841 1186.9 561.841H1178.05C1169.69 561.841 1162.92 559.505 1157.76 554.832C1152.72 550.16 1150.2 543.52 1150.2 534.913V481.24C1150.2 480.134 1149.58 479.58 1148.35 479.58ZM1263.74 533.068V481.24C1263.74 480.134 1263.13 479.58 1261.9 479.58H1236.08C1230.91 479.58 1227.04 480.933 1224.46 483.638C1222 486.343 1220.77 490.339 1220.77 495.627V533.99C1220.77 539.155 1222 543.151 1224.46 545.979C1227.04 548.684 1230.91 550.037 1236.08 550.037H1246.59C1252.25 550.037 1256.49 548.561 1259.32 545.61C1262.27 542.536 1263.74 538.355 1263.74 533.068ZM1244.19 561.841H1234.6C1226.12 561.841 1219.42 559.443 1214.5 554.648C1209.7 549.852 1207.31 543.151 1207.31 534.544V495.073C1207.31 486.466 1209.7 479.765 1214.5 474.969C1219.42 470.174 1226.12 467.776 1234.6 467.776H1274.63C1276.35 467.776 1277.21 468.637 1277.21 470.358V559.259C1277.21 560.98 1276.35 561.841 1274.63 561.841H1266.33C1264.6 561.841 1263.74 560.98 1263.74 559.259V552.065H1263.01C1261.65 555.017 1259.32 557.414 1256 559.259C1252.8 560.98 1248.87 561.841 1244.19 561.841ZM1254.71 432.179H1265.77C1266.63 432.179 1267.19 432.425 1267.43 432.917C1267.68 433.409 1267.56 434.024 1267.06 434.761L1251.02 454.128C1249.91 455.357 1248.62 455.972 1247.14 455.972H1241.24C1239.52 455.972 1239.15 455.111 1240.14 453.39L1250.83 434.577C1251.69 432.978 1252.99 432.179 1254.71 432.179ZM1334.54 561.841H1301.71C1299.99 561.841 1299.13 560.98 1299.13 559.259V552.803C1299.13 551.943 1299.31 551.328 1299.68 550.959C1300.05 550.59 1300.72 550.406 1301.71 550.406H1332.69C1337.37 550.406 1340.93 549.545 1343.39 547.823C1345.85 546.102 1347.08 543.397 1347.08 539.708V536.204C1347.08 533.13 1346.34 530.486 1344.87 528.273C1343.52 525.936 1341.12 524.092 1337.67 522.739L1315.91 513.517C1309.76 510.935 1305.27 507.923 1302.45 504.48C1299.74 500.914 1298.39 496.241 1298.39 490.462C1298.39 483.085 1300.36 477.49 1304.29 473.678C1308.23 469.744 1314.56 467.776 1323.29 467.776H1353.54C1355.26 467.776 1356.12 468.637 1356.12 470.358V476.814C1356.12 477.674 1355.93 478.289 1355.57 478.658C1355.2 479.027 1354.52 479.211 1353.54 479.211H1325.69C1320.89 479.211 1317.45 480.195 1315.36 482.163C1313.27 484.13 1312.22 486.22 1312.22 488.433V491.569C1312.22 494.766 1313.21 497.225 1315.17 498.947C1317.14 500.668 1319.66 502.144 1322.73 503.373L1344.5 513.149C1349.05 514.87 1352.49 516.96 1354.83 519.42C1357.16 521.879 1358.76 524.707 1359.62 527.904C1360.48 531.101 1360.91 534.667 1360.91 538.601C1360.91 546.594 1358.7 552.496 1354.27 556.308C1349.97 559.996 1343.39 561.841 1334.54 561.841ZM1383.35 559.259V470.358C1383.35 468.637 1384.14 467.776 1385.74 467.776H1394.23C1395.95 467.776 1396.81 468.637 1396.81 470.358V559.259C1396.81 560.242 1396.56 560.919 1396.07 561.287C1395.7 561.656 1395.09 561.841 1394.23 561.841H1385.93C1384.21 561.841 1383.35 560.98 1383.35 559.259ZM1383.35 452.283V434.946C1383.35 433.224 1384.14 432.364 1385.74 432.364H1394.23C1395.95 432.364 1396.81 433.224 1396.81 434.946V452.283C1396.81 454.005 1395.95 454.865 1394.23 454.865H1385.74C1384.14 454.865 1383.35 454.005 1383.35 452.283ZM1488.77 561.841H1473.1C1470.51 561.841 1469.22 560.55 1469.22 557.968V447.119C1469.22 444.537 1470.51 443.246 1473.1 443.246H1488.77C1491.36 443.246 1492.65 444.537 1492.65 447.119V499.684H1493.02C1493.75 497.348 1494.68 495.196 1495.78 493.229C1497.01 491.139 1498 489.479 1498.73 488.249L1526.77 447.119C1527.75 445.643 1528.67 444.66 1529.53 444.168C1530.52 443.553 1531.99 443.246 1533.96 443.246H1552.04C1553.39 443.246 1554.19 443.614 1554.43 444.352C1554.8 445.09 1554.5 446.135 1553.51 447.488L1518.47 495.996L1557.57 557.23C1558.55 558.705 1558.74 559.873 1558.12 560.734C1557.51 561.472 1556.34 561.841 1554.62 561.841H1541.15C1539.19 561.841 1537.47 561.595 1535.99 561.103C1534.64 560.611 1533.47 559.566 1532.49 557.968L1504.27 512.78L1492.65 526.428V557.968C1492.65 560.55 1491.36 561.841 1488.77 561.841ZM1599.74 550.037H1612.65C1617.81 550.037 1621.68 548.684 1624.27 545.979C1626.85 543.274 1628.14 539.339 1628.14 534.175V495.442C1628.14 490.278 1626.85 486.343 1624.27 483.638C1621.68 480.933 1617.81 479.58 1612.65 479.58H1599.74C1594.57 479.58 1590.7 480.933 1588.12 483.638C1585.53 486.343 1584.24 490.278 1584.24 495.442V534.175C1584.24 539.339 1585.53 543.274 1588.12 545.979C1590.7 548.684 1594.57 550.037 1599.74 550.037ZM1614.12 561.841H1598.26C1589.78 561.841 1583.07 559.443 1578.16 554.648C1573.36 549.852 1570.96 543.151 1570.96 534.544V495.073C1570.96 486.466 1573.36 479.765 1578.16 474.969C1583.07 470.174 1589.78 467.776 1598.26 467.776H1614.12C1622.61 467.776 1629.25 470.174 1634.04 474.969C1638.96 479.765 1641.42 486.466 1641.42 495.073V534.544C1641.42 543.151 1638.96 549.852 1634.04 554.648C1629.25 559.443 1622.61 561.841 1614.12 561.841ZM1615.6 453.39V434.761C1615.6 433.04 1616.4 432.179 1618 432.179H1625.93C1627.52 432.179 1628.32 432.978 1628.32 434.577V453.39C1628.32 455.111 1627.52 455.972 1625.93 455.972H1618C1616.4 455.972 1615.6 455.111 1615.6 453.39ZM1584.06 453.39V434.761C1584.06 433.04 1584.86 432.179 1586.46 432.179H1594.39C1595.99 432.179 1596.78 432.978 1596.78 434.577V453.39C1596.78 455.111 1595.99 455.972 1594.39 455.972H1586.46C1584.86 455.972 1584.06 455.111 1584.06 453.39ZM1658.39 559.259V555.754C1658.39 554.156 1658.57 552.988 1658.94 552.25C1659.31 551.512 1659.74 550.774 1660.23 550.037L1705.79 480.318V479.58H1662.45C1660.72 479.58 1659.86 478.658 1659.86 476.814V470.358C1659.86 468.637 1660.72 467.776 1662.45 467.776H1719.07C1720.91 467.776 1721.84 468.637 1721.84 470.358V476.445C1721.84 477.797 1721.71 478.843 1721.47 479.58C1721.22 480.318 1720.79 480.933 1720.18 481.425L1676.09 549.299V550.037H1720.73C1722.45 550.037 1723.31 550.959 1723.31 552.803V559.259C1723.31 560.98 1722.45 561.841 1720.73 561.841H1661.15C1659.31 561.841 1658.39 560.98 1658.39 559.259ZM1772.74 550.037H1783.62C1788.9 550.037 1792.84 548.684 1795.42 545.979C1798 543.151 1799.29 539.155 1799.29 533.99V495.627C1799.29 490.339 1798 486.343 1795.42 483.638C1792.84 480.933 1788.9 479.58 1783.62 479.58H1772.74C1767.08 479.58 1762.78 481.117 1759.82 484.191C1757 487.142 1755.58 491.262 1755.58 496.549V533.068C1755.58 538.355 1757 542.536 1759.82 545.61C1762.78 548.561 1767.08 550.037 1772.74 550.037ZM1753 588.769H1744.7C1742.98 588.769 1742.12 587.908 1742.12 586.187V470.358C1742.12 468.637 1742.98 467.776 1744.7 467.776H1753C1754.72 467.776 1755.58 468.637 1755.58 470.358V477.552H1756.32C1757.67 474.6 1759.95 472.264 1763.14 470.543C1766.46 468.698 1770.46 467.776 1775.13 467.776H1786.2C1794.56 467.776 1801.02 470.174 1805.57 474.969C1810.24 479.765 1812.57 486.466 1812.57 495.073V534.544C1812.57 543.151 1810.24 549.852 1805.57 554.648C1801.02 559.443 1794.56 561.841 1786.2 561.841H1775.13C1770.46 561.841 1766.46 560.98 1763.14 559.259C1759.95 557.414 1757.67 555.017 1756.32 552.065H1755.58V586.187C1755.58 587.908 1754.72 588.769 1753 588.769ZM1863.07 550.037H1875.98C1881.14 550.037 1885.02 548.684 1887.6 545.979C1890.18 543.274 1891.47 539.339 1891.47 534.175V495.442C1891.47 490.278 1890.18 486.343 1887.6 483.638C1885.02 480.933 1881.14 479.58 1875.98 479.58H1863.07C1857.9 479.58 1854.03 480.933 1851.45 483.638C1848.87 486.343 1847.57 490.278 1847.57 495.442V534.175C1847.57 539.339 1848.87 543.274 1851.45 545.979C1854.03 548.684 1857.9 550.037 1863.07 550.037ZM1877.45 561.841H1861.59C1853.11 561.841 1846.41 559.443 1841.49 554.648C1836.69 549.852 1834.29 543.151 1834.29 534.544V495.073C1834.29 486.466 1836.69 479.765 1841.49 474.969C1846.41 470.174 1853.11 467.776 1861.59 467.776H1877.45C1885.94 467.776 1892.58 470.174 1897.37 474.969C1902.29 479.765 1904.75 486.466 1904.75 495.073V534.544C1904.75 543.151 1902.29 549.852 1897.37 554.648C1892.58 559.443 1885.94 561.841 1877.45 561.841ZM1939.24 561.841H1930.94C1929.22 561.841 1928.36 560.98 1928.36 559.259V470.358C1928.36 468.637 1929.22 467.776 1930.94 467.776H1939.24C1940.96 467.776 1941.82 468.637 1941.82 470.358V477.552H1942.56C1943.91 474.6 1946.13 472.264 1949.2 470.543C1952.4 468.698 1956.46 467.776 1961.37 467.776H1971.7C1980.19 467.776 1986.7 470.174 1991.25 474.969C1995.93 479.765 1998.26 486.466 1998.26 495.073V559.259C1998.26 560.98 1997.4 561.841 1995.68 561.841H1987.38C1985.66 561.841 1984.8 560.98 1984.8 559.259V495.627C1984.8 490.339 1983.51 486.343 1980.93 483.638C1978.34 480.933 1974.47 479.58 1969.31 479.58H1958.98C1953.32 479.58 1949.02 481.117 1946.07 484.191C1943.24 487.142 1941.82 491.262 1941.82 496.549V559.259C1941.82 560.98 1940.96 561.841 1939.24 561.841ZM2026.25 479.58H2016.1C2015.12 479.58 2014.44 479.396 2014.07 479.027C2013.7 478.658 2013.52 478.043 2013.52 477.183V470.358C2013.52 468.637 2014.38 467.776 2016.1 467.776H2026.25C2027.48 467.776 2028.09 467.223 2028.09 466.116V450.254C2028.09 448.533 2028.95 447.672 2030.67 447.672H2038.97C2040.57 447.672 2041.37 448.533 2041.37 450.254V466.116C2041.37 467.223 2042.05 467.776 2043.4 467.776H2062.95C2064.79 467.776 2065.72 468.637 2065.72 470.358V477.183C2065.72 478.781 2064.79 479.58 2062.95 479.58H2043.4C2042.05 479.58 2041.37 480.134 2041.37 481.24V534.359C2041.37 539.524 2042.78 543.458 2045.61 546.163C2048.44 548.746 2052.44 550.037 2057.6 550.037H2064.79C2066.64 550.037 2067.56 550.897 2067.56 552.619V559.443C2067.56 561.042 2066.64 561.841 2064.79 561.841H2055.94C2047.58 561.841 2040.82 559.505 2035.65 554.832C2030.61 550.16 2028.09 543.52 2028.09 534.913V481.24C2028.09 480.134 2027.48 479.58 2026.25 479.58ZM828.199 688.563L814.92 741.866H842.217L828.937 688.563H828.199ZM801.456 784.841H783.749C782.52 784.841 781.72 784.533 781.352 783.919C781.106 783.304 781.167 782.32 781.536 780.968L810.678 670.119C811.538 667.537 813.383 666.246 816.211 666.246H840.741C843.815 666.246 845.66 667.537 846.275 670.119L875.416 780.968C875.785 782.32 875.847 783.304 875.601 783.919C875.355 784.533 874.555 784.841 873.203 784.841H855.497C853.283 784.841 851.992 783.55 851.623 780.968L846.459 760.679H810.493L805.329 780.968C805.083 782.443 804.714 783.488 804.222 784.103C803.73 784.595 802.808 784.841 801.456 784.841ZM904.307 784.841H896.007C894.286 784.841 893.425 783.98 893.425 782.259V657.761C893.425 656.04 894.286 655.179 896.007 655.179H904.307C906.028 655.179 906.889 656.04 906.889 657.761V782.259C906.889 783.98 906.028 784.841 904.307 784.841ZM987.804 756.068V704.24C987.804 703.134 987.189 702.58 985.959 702.58H960.138C954.973 702.58 951.1 703.933 948.518 706.638C946.059 709.343 944.829 713.339 944.829 718.627V756.99C944.829 762.155 946.059 766.151 948.518 768.979C951.1 771.684 954.973 773.037 960.138 773.037H970.651C976.307 773.037 980.549 771.561 983.377 768.61C986.328 765.536 987.804 761.355 987.804 756.068ZM968.253 784.841H958.662C950.178 784.841 943.477 782.443 938.558 777.648C933.763 772.852 931.365 766.151 931.365 757.544V718.073C931.365 709.466 933.763 702.765 938.558 697.969C943.477 693.174 950.178 690.776 958.662 690.776H998.686C1000.41 690.776 1001.27 691.637 1001.27 693.358V782.259C1001.27 783.98 1000.41 784.841 998.686 784.841H990.386C988.665 784.841 987.804 783.98 987.804 782.259V775.065H987.066C985.714 778.017 983.377 780.414 980.057 782.259C976.86 783.98 972.926 784.841 968.253 784.841ZM1057.31 773.037H1068.19C1073.48 773.037 1077.41 771.684 1079.99 768.979C1082.58 766.151 1083.87 762.155 1083.87 756.99V718.627C1083.87 713.339 1082.58 709.343 1079.99 706.638C1077.41 703.933 1073.48 702.58 1068.19 702.58H1057.31C1051.65 702.58 1047.35 704.117 1044.4 707.191C1041.57 710.142 1040.15 714.262 1040.15 719.549V756.068C1040.15 761.355 1041.57 765.536 1044.4 768.61C1047.35 771.561 1051.65 773.037 1057.31 773.037ZM1037.57 811.769H1029.27C1027.55 811.769 1026.69 810.908 1026.69 809.187V693.358C1026.69 691.637 1027.55 690.776 1029.27 690.776H1037.57C1039.29 690.776 1040.15 691.637 1040.15 693.358V700.552H1040.89C1042.25 697.6 1044.52 695.264 1047.72 693.543C1051.04 691.698 1055.03 690.776 1059.71 690.776H1070.77C1079.13 690.776 1085.59 693.174 1090.14 697.969C1094.81 702.765 1097.15 709.466 1097.15 718.073V757.544C1097.15 766.151 1094.81 772.852 1090.14 777.648C1085.59 782.443 1079.13 784.841 1070.77 784.841H1059.71C1055.03 784.841 1051.04 783.98 1047.72 782.259C1044.52 780.414 1042.25 778.017 1040.89 775.065H1040.15V809.187C1040.15 810.908 1039.29 811.769 1037.57 811.769ZM1121.63 782.259V693.358C1121.63 691.637 1122.43 690.776 1124.03 690.776H1132.52C1134.24 690.776 1135.1 691.637 1135.1 693.358V782.259C1135.1 783.242 1134.85 783.919 1134.36 784.287C1133.99 784.656 1133.38 784.841 1132.52 784.841H1124.22C1122.49 784.841 1121.63 783.98 1121.63 782.259ZM1138.79 655.179H1149.67C1150.65 655.179 1151.27 655.425 1151.51 655.917C1151.76 656.409 1151.58 657.024 1150.96 657.761L1134.91 677.128C1133.93 678.357 1132.7 678.972 1131.23 678.972H1125.14C1123.54 678.972 1123.17 678.111 1124.03 676.39L1134.73 657.577C1135.59 655.978 1136.94 655.179 1138.79 655.179ZM1164.74 702.58H1154.6C1153.61 702.58 1152.94 702.396 1152.57 702.027C1152.2 701.658 1152.02 701.043 1152.02 700.183V693.358C1152.02 691.637 1152.88 690.776 1154.6 690.776H1164.74C1165.97 690.776 1166.59 690.223 1166.59 689.116V673.254C1166.59 671.533 1167.45 670.672 1169.17 670.672H1177.47C1179.07 670.672 1179.87 671.533 1179.87 673.254V689.116C1179.87 690.223 1180.54 690.776 1181.9 690.776H1201.45C1203.29 690.776 1204.21 691.637 1204.21 693.358V700.183C1204.21 701.781 1203.29 702.58 1201.45 702.58H1181.9C1180.54 702.58 1179.87 703.134 1179.87 704.24V757.359C1179.87 762.524 1181.28 766.458 1184.11 769.163C1186.94 771.746 1190.93 773.037 1196.1 773.037H1203.29C1205.14 773.037 1206.06 773.897 1206.06 775.619V782.443C1206.06 784.042 1205.14 784.841 1203.29 784.841H1194.44C1186.08 784.841 1179.31 782.505 1174.15 777.832C1169.11 773.16 1166.59 766.52 1166.59 757.913V704.24C1166.59 703.134 1165.97 702.58 1164.74 702.58ZM1242.88 782.074L1216.5 693.358C1215.89 691.637 1216.5 690.776 1218.35 690.776H1227.02C1228.61 690.776 1229.6 691.637 1229.97 693.358L1252.1 771.377H1253.02L1274.97 693.358C1275.46 691.637 1276.51 690.776 1278.11 690.776H1286.77C1288.62 690.776 1289.23 691.637 1288.62 693.358L1262.06 782.074C1261.69 783.919 1260.58 784.841 1258.74 784.841H1246.2C1244.48 784.841 1243.37 783.919 1242.88 782.074ZM1359.57 756.068V704.24C1359.57 703.134 1358.95 702.58 1357.72 702.58H1331.9C1326.74 702.58 1322.86 703.933 1320.28 706.638C1317.82 709.343 1316.59 713.339 1316.59 718.627V756.99C1316.59 762.155 1317.82 766.151 1320.28 768.979C1322.86 771.684 1326.74 773.037 1331.9 773.037H1342.41C1348.07 773.037 1352.31 771.561 1355.14 768.61C1358.09 765.536 1359.57 761.355 1359.57 756.068ZM1340.02 784.841H1330.43C1321.94 784.841 1315.24 782.443 1310.32 777.648C1305.53 772.852 1303.13 766.151 1303.13 757.544V718.073C1303.13 709.466 1305.53 702.765 1310.32 697.969C1315.24 693.174 1321.94 690.776 1330.43 690.776H1370.45C1372.17 690.776 1373.03 691.637 1373.03 693.358V782.259C1373.03 783.98 1372.17 784.841 1370.45 784.841H1362.15C1360.43 784.841 1359.57 783.98 1359.57 782.259V775.065H1358.83C1357.48 778.017 1355.14 780.414 1351.82 782.259C1348.62 783.98 1344.69 784.841 1340.02 784.841ZM1350.53 655.179H1361.6C1362.46 655.179 1363.01 655.425 1363.26 655.917C1363.5 656.409 1363.38 657.024 1362.89 657.761L1346.84 677.128C1345.73 678.357 1344.44 678.972 1342.97 678.972H1337.07C1335.34 678.972 1334.97 678.111 1335.96 676.39L1346.66 657.577C1347.52 655.978 1348.81 655.179 1350.53 655.179ZM1409.34 784.841H1401.04C1399.31 784.841 1398.45 783.98 1398.45 782.259V693.358C1398.45 691.637 1399.31 690.776 1401.04 690.776H1409.34C1411.06 690.776 1411.92 691.637 1411.92 693.358V700.552H1412.66C1414.01 697.6 1416.22 695.264 1419.3 693.543C1422.49 691.698 1426.55 690.776 1431.47 690.776H1441.8C1450.28 690.776 1456.8 693.174 1461.35 697.969C1466.02 702.765 1468.36 709.466 1468.36 718.073V782.259C1468.36 783.98 1467.5 784.841 1465.77 784.841H1457.47C1455.75 784.841 1454.89 783.98 1454.89 782.259V718.627C1454.89 713.339 1453.6 709.343 1451.02 706.638C1448.44 703.933 1444.56 702.58 1439.4 702.58H1429.07C1423.41 702.58 1419.11 704.117 1416.16 707.191C1413.33 710.142 1411.92 714.262 1411.92 719.549V782.259C1411.92 783.98 1411.06 784.841 1409.34 784.841ZM1500.4 813.798H1492.28C1490.56 813.798 1489.7 812.937 1489.7 811.216V804.392C1489.7 802.67 1490.56 801.809 1492.28 801.809H1496.89C1502.3 801.809 1506.48 800.764 1509.43 798.674C1512.39 796.706 1514.66 794.063 1516.26 790.743C1517.86 787.423 1519.27 783.796 1520.5 779.861H1515.15C1514.29 779.861 1513.62 779.615 1513.12 779.123C1512.63 778.631 1512.26 778.017 1512.02 777.279L1484.9 693.358C1484.41 691.637 1485.03 690.776 1486.75 690.776H1495.6C1497.2 690.776 1498.25 691.637 1498.74 693.358L1522.53 769.348H1523.27L1547.06 693.358C1547.43 691.637 1548.41 690.776 1550.01 690.776H1558.5C1560.46 690.776 1561.2 691.698 1560.71 693.543L1533.23 781.152C1532 785.456 1530.52 789.513 1528.8 793.325C1527.08 797.26 1524.99 800.764 1522.53 803.838C1520.07 806.912 1517.06 809.31 1513.49 811.031C1509.93 812.876 1505.56 813.798 1500.4 813.798Z" fill="#1E1E1E"/>
</svg>
