<svg width="701" height="792" viewBox="0 0 701 792" fill="none" xmlns="http://www.w3.org/2000/svg">
<path d="M441.391 479.914C448.838 492.275 465.027 496.384 476.323 487.403C503.834 465.533 525.282 436.751 538.343 403.799C554.629 362.713 556.977 317.415 545.024 274.865C533.072 232.315 507.481 194.865 472.183 168.269C436.884 141.672 393.83 127.399 349.634 127.642C305.438 127.886 262.543 142.632 227.54 169.615C192.536 196.599 167.359 234.328 155.876 277.007C144.393 319.686 147.238 364.955 163.976 405.86C177.399 438.666 199.162 467.21 226.912 488.776C238.307 497.631 254.45 493.345 261.76 480.902C269.07 468.459 264.716 452.602 253.734 443.24C235.668 427.84 221.428 408.271 212.343 386.069C199.94 355.757 197.832 322.212 206.341 290.585C214.851 258.959 233.508 231 259.446 211.005C285.385 191.009 317.171 180.082 349.922 179.902C382.672 179.721 414.577 190.298 440.734 210.007C466.891 229.716 485.855 257.467 494.712 288.998C503.569 320.529 501.829 354.095 489.761 384.542C480.921 406.843 466.898 426.567 449.002 442.165C438.124 451.648 433.944 467.552 441.391 479.914Z" fill="#93E9BE"/>
<path d="M439.843 564.637C444.824 577.786 459.586 584.511 472.222 578.345C522.571 553.774 564.482 514.4 592.144 465.223C623.981 408.622 634.918 342.633 623.041 278.787C611.165 214.941 577.231 157.298 527.17 115.931C477.108 74.5646 414.103 52.1043 349.163 52.4752C284.222 52.8462 221.477 76.0247 171.892 117.961C122.306 159.897 89.0332 217.923 77.887 281.901C66.7407 345.878 78.4301 411.738 110.912 467.972C139.134 516.83 181.492 555.722 232.118 579.716C244.824 585.738 259.509 578.844 264.339 565.64C269.169 552.435 262.296 537.942 249.718 531.658C210.26 511.946 177.249 481.019 155.002 442.505C128.491 396.609 118.951 342.856 128.048 290.64C137.145 238.424 164.301 191.065 204.771 156.838C245.241 122.611 296.452 103.694 349.453 103.391C402.455 103.088 453.878 121.42 494.736 155.182C535.595 188.944 563.29 235.99 572.983 288.098C582.676 340.207 573.751 394.065 547.766 440.261C525.96 479.027 493.305 510.329 454.075 530.491C441.569 536.918 434.862 551.489 439.843 564.637Z" fill="#93E9BE"/>
<path d="M401.424 329.149C401.424 357.411 378.513 380.322 350.251 380.322C321.989 380.322 299.079 357.411 299.079 329.149C299.079 300.887 321.989 277.977 350.251 277.977C378.513 277.977 401.424 300.887 401.424 329.149Z" fill="#35D384"/>
<path d="M289.249 406.342H411.253V532.394H289.249V406.342Z" fill="#35D384"/>
<path d="M289.249 532.394H340.711V580.097C340.711 594.308 329.19 605.828 314.98 605.828C300.769 605.828 289.249 594.308 289.249 580.097V532.394Z" fill="#35D384"/>
<path d="M359.792 532.394H411.253L411.254 580.097C411.254 594.308 399.733 605.828 385.523 605.828C371.312 605.828 359.792 594.308 359.792 580.097V532.394Z" fill="#35D384"/>
<path d="M449.153 329.438C463.349 329.438 475.124 341.066 472.222 354.963C467.293 378.57 455.588 400.441 438.277 417.753C414.854 441.175 383.086 454.334 349.962 454.334C316.838 454.334 285.07 441.175 261.648 417.753C244.336 400.441 232.631 378.57 227.702 354.963C224.8 341.066 236.575 329.438 250.771 329.438C264.967 329.438 276.06 341.286 280.925 354.622C284.563 364.592 290.351 373.753 297.999 381.401C311.781 395.183 330.472 402.925 349.962 402.925C369.452 402.925 388.144 395.183 401.925 381.401C409.573 373.753 415.362 364.592 418.999 354.622C423.864 341.286 434.957 329.438 449.153 329.438Z" fill="#35D384"/>
<path d="M446.227 304.627C459.45 301.14 467.554 287.426 461.52 275.155C453.161 258.159 440.977 243.195 425.796 231.508C404.031 214.753 377.331 205.677 349.863 205.699C322.396 205.721 295.71 214.839 273.972 231.628C258.809 243.339 246.649 258.322 238.318 275.332C232.302 287.613 240.429 301.314 253.657 304.78C266.885 308.246 280.122 299.952 287.7 288.569C292.181 281.837 297.755 275.831 304.242 270.821C317.321 260.719 333.377 255.233 349.903 255.22C366.428 255.207 382.493 260.667 395.588 270.748C402.083 275.748 407.666 281.745 412.158 288.47C419.754 299.841 433.004 308.115 446.227 304.627Z" fill="#35D384"/>
<path d="M181.243 737.36L146.077 682.274V737.36H124.805V649.075H149.766L182.35 700.103V649.075H203.622V737.36H181.243Z" fill="#35D384"/>
<path d="M261.198 739.205C254.805 739.205 248.861 738.098 243.369 735.885C237.877 733.59 233.041 730.393 228.86 726.294C224.761 722.113 221.523 717.236 219.146 711.662C216.851 706.006 215.703 699.817 215.703 693.095C215.703 686.373 216.851 680.225 219.146 674.651C221.523 669.076 224.761 664.24 228.86 660.141C233.041 656.043 237.877 652.887 243.369 650.673C248.861 648.378 254.805 647.23 261.198 647.23C267.592 647.23 273.535 648.378 279.028 650.673C284.602 652.887 289.438 656.043 293.537 660.141C297.718 664.24 300.956 669.076 303.251 674.651C305.628 680.225 306.817 686.373 306.817 693.095C306.817 699.817 305.628 706.006 303.251 711.662C300.956 717.236 297.718 722.113 293.537 726.294C289.438 730.393 284.602 733.59 279.028 735.885C273.535 738.098 267.592 739.205 261.198 739.205ZM261.198 718.425C264.641 718.425 267.715 717.769 270.42 716.457C273.126 715.146 275.38 713.342 277.183 711.047C279.069 708.67 280.462 705.965 281.364 702.932C282.348 699.817 282.839 696.538 282.839 693.095C282.839 689.652 282.348 686.414 281.364 683.381C280.462 680.348 279.069 677.684 277.183 675.388C275.38 673.093 273.126 671.29 270.42 669.978C267.715 668.667 264.641 668.011 261.198 668.011C257.756 668.011 254.682 668.667 251.976 669.978C249.271 671.29 246.976 673.093 245.091 675.388C243.287 677.684 241.894 680.348 240.91 683.381C240.008 686.414 239.557 689.652 239.557 693.095C239.557 696.538 240.008 699.817 240.91 702.932C241.894 705.965 243.287 708.67 245.091 711.047C246.976 713.342 249.271 715.146 251.976 716.457C254.682 717.769 257.756 718.425 261.198 718.425Z" fill="#35D384"/>
<path d="M342.091 737.36H318.851V649.075H342.091V686.209L369.634 649.075H396.071L364.962 690.513L396.931 737.36H368.65L342.091 697.521V737.36Z" fill="#35D384"/>
<path d="M429.508 737.36H406.269V649.075H429.508V686.209L457.051 649.075H483.488L452.379 690.513L484.348 737.36H456.068L429.508 697.521V737.36Z" fill="#35D384"/>
<path d="M511.638 702.686H549.141L555.166 721.007H505.49L511.638 702.686ZM551.231 737.36L530.574 674.651L509.302 737.36H485.816L518.524 649.075H543.976L576.315 737.36H551.231Z" fill="#35D384"/>
</svg>
